<svg xmlns="http://www.w3.org/2000/svg" width="512" height="512" viewBox="0 0 512 512" role="img" aria-labelledby="title desc">
  <title id="title">AI Chat Icon</title>
  <desc id="desc">Original icon showing a chat bubble with circuit accents.</desc>
  <defs>
    <linearGradient id="bg" x1="0" y1="0" x2="1" y2="1">
      <stop offset="0%" stop-color="#0f172a"/>
      <stop offset="100%" stop-color="#334155"/>
    </linearGradient>
  </defs>
  <rect x="24" y="24" width="464" height="464" rx="96" fill="url(#bg)"/>
  <path d="M120 150c0-26.5 21.5-48 48-48h176c26.5 0 48 21.5 48 48v118c0 26.5-21.5 48-48 48H214l-66 54v-54h20c-26.5 0-48-21.5-48-48V150z" fill="#e2e8f0"/>
  <rect x="185" y="161" width="142" height="96" rx="20" fill="#0f172a"/>
  <circle cx="217" cy="209" r="12" fill="#e2e8f0"/>
  <circle cx="256" cy="209" r="12" fill="#e2e8f0"/>
  <circle cx="295" cy="209" r="12" fill="#e2e8f0"/>
  <path d="M372 148h30v18h-30zM392 168h18v30h-18zM372 232h30v18h-30zM346 188h18v30h-18z" fill="#94a3b8"/>
</svg>
